<svg width="51" height="51" viewBox="0 0 51 51" fill="none" xmlns="http://www.w3.org/2000/svg">
<g style="mix-blend-mode:multiply" clip-path="url(#clip0_2001_275)">
<path d="M0.81376 0H23.3633C23.5919 0 23.7989 0.102917 23.9473 0.251308L36.4026 12.7066C36.5629 12.867 36.6431 13.0728 36.6431 13.2798V50.185C36.6431 50.6314 36.2757 50.9988 35.8294 50.9988H0.81376C0.367389 50.9988 0 50.6314 0 50.185V0.81376C0 0.366192 0.366192 0 0.81376 0ZM23.0306 1.62752H1.61555V49.3832H35.0156V13.6125L23.0306 1.62752Z" fill="black"/>
<path d="M23.9471 0.251308L36.4024 12.7066C36.7111 13.0273 36.7111 13.5311 36.4024 13.8519C36.242 14.0134 36.0362 14.0924 35.8292 14.0924H23.3631C22.9167 14.0924 22.5493 13.7262 22.5493 13.2798V0.81376C22.5493 0.367389 22.9155 0 23.3631 0C23.5916 0 23.7987 0.102917 23.9471 0.251308ZM33.8809 12.478L24.1649 2.7608V12.478H33.8809Z" fill="black"/>
<path d="M4.93876 36.849H13.3492C13.7956 36.849 14.151 37.2152 14.151 37.6508V46.072C14.151 46.5184 13.7956 46.8738 13.3492 46.8738H4.93876C4.49239 46.8738 4.125 46.5184 4.125 46.072V37.6508C4.125 37.2152 4.49119 36.849 4.93876 36.849ZM12.5354 38.4646H5.74055V45.2594H12.5354V38.4646Z" fill="black"/>
<path d="M10.1863 40.0561C10.4843 39.7246 10.9881 39.6899 11.3328 39.9759C11.6654 40.2739 11.6989 40.7777 11.401 41.1212L9.16672 43.6654C8.86874 44.01 8.36493 44.0435 8.03225 43.7456C7.99754 43.7228 7.9748 43.7001 7.95207 43.6654L6.87503 42.4388C6.58902 42.1061 6.62253 41.5903 6.95521 41.3043C7.28789 41.0063 7.79171 41.041 8.08969 41.3725L8.55999 41.911L10.1875 40.0537L10.1863 40.0561Z" fill="black"/>
<path d="M4.93876 24.6569H13.3492C13.7956 24.6569 14.151 25.0242 14.151 25.4706V33.8811C14.151 34.3274 13.7956 34.6936 13.3492 34.6936H4.93876C4.49239 34.6936 4.125 34.3274 4.125 33.8811V25.4706C4.125 25.0242 4.49119 24.6569 4.93876 24.6569ZM12.5354 26.2724H5.74055V33.0781H12.5354V26.2724Z" fill="black"/>
<path d="M10.1863 27.8653C10.4843 27.5326 10.9881 27.4991 11.3328 27.7971C11.6654 28.0831 11.6989 28.5989 11.401 28.9315L9.16672 31.4865C8.86874 31.8192 8.36493 31.8539 8.03225 31.5559C7.99754 31.532 7.9748 31.5092 7.95207 31.4757L6.87503 30.2491C6.58902 29.9164 6.62253 29.4126 6.95521 29.1146C7.28789 28.8274 7.79171 28.8633 8.08969 29.1948L8.55999 29.7333L10.1875 27.8653H10.1863Z" fill="black"/>
<path d="M4.93876 12.478H13.3492C13.7956 12.478 14.151 12.8334 14.151 13.2798V21.6891C14.151 22.1366 13.7956 22.5028 13.3492 22.5028H4.93876C4.49239 22.5028 4.125 22.1366 4.125 21.6891V13.2798C4.125 12.8334 4.49119 12.478 4.93876 12.478ZM12.5354 14.0924H5.74055V20.8873H12.5354V14.0924Z" fill="black"/>
<path d="M10.1863 15.6853C10.4843 15.3418 10.9881 15.3083 11.3328 15.6051C11.6654 15.8923 11.6989 16.4069 11.401 16.7396L9.16672 19.2945C8.86874 19.6272 8.36493 19.6619 8.03225 19.3747C7.99754 19.34 7.9748 19.3173 7.95207 19.2945L6.87503 18.0679C6.58902 17.7245 6.62253 17.2206 6.95521 16.9227C7.28789 16.6355 7.79171 16.6714 8.08969 17.0028L8.55999 17.5414L10.1875 15.6841L10.1863 15.6853Z" fill="black"/>
<path d="M27.7395 28.8622C28.1858 28.8622 28.5412 29.2284 28.5412 29.6747C28.5412 30.1211 28.1858 30.4885 27.7395 30.4885H19.4319C18.9856 30.4885 18.6182 30.1211 18.6182 29.6747C18.6182 29.2284 18.9844 28.8622 19.4319 28.8622H27.7395Z" fill="black"/>
<path d="M30.479 16.6821C30.9254 16.6821 31.2927 17.0376 31.2927 17.4839C31.2927 17.9303 30.9265 18.2977 30.479 18.2977H19.4334C18.987 18.2977 18.6196 17.9303 18.6196 17.4839C18.6196 17.0376 18.9858 16.6821 19.4334 16.6821H30.479Z" fill="black"/>
<path d="M22.5496 41.053C22.996 41.053 23.3514 41.4204 23.3514 41.8667C23.3514 42.3131 22.996 42.6685 22.5496 42.6685H19.4334C18.987 42.6685 18.6196 42.3143 18.6196 41.8667C18.6196 41.4192 18.9858 41.053 19.4334 41.053H22.5496Z" fill="black"/>
<path d="M30.479 20.8885C30.9254 20.8885 31.2927 21.2547 31.2927 21.7011C31.2927 22.1475 30.9265 22.5029 30.479 22.5029H19.4334C18.987 22.5029 18.6196 22.1367 18.6196 21.7011C18.6196 21.2655 18.9858 20.8885 19.4334 20.8885H30.479Z" fill="black"/>
<path d="M25.3101 33.0793C25.7457 33.0793 26.1119 33.4348 26.1119 33.8811C26.1119 34.3275 25.7457 34.6937 25.3101 34.6937H19.4319C18.9856 34.6937 18.6182 34.3275 18.6182 33.8811C18.6182 33.4348 18.9844 33.0793 19.4319 33.0793H25.3101Z" fill="black"/>
<path d="M22.5496 45.2594C22.996 45.2594 23.3514 45.6256 23.3514 46.072C23.3514 46.5183 22.996 46.8738 22.5496 46.8738H19.4334C18.987 46.8738 18.6196 46.5183 18.6196 46.072C18.6196 45.6256 18.9858 45.2594 19.4334 45.2594H22.5496Z" fill="black"/>
<path d="M10.1061 3.79236C10.5525 3.79236 10.9199 4.14658 10.9199 4.59415C10.9199 5.04172 10.5537 5.40671 10.1061 5.40671H4.93876C4.49239 5.40671 4.125 5.04052 4.125 4.59415C4.125 4.14778 4.49119 3.79236 4.93876 3.79236H10.1061Z" fill="black"/>
<path d="M17.6573 7.42432C18.1049 7.42432 18.4591 7.7917 18.4591 8.23808C18.4591 8.68445 18.1037 9.03987 17.6573 9.03987H4.93876C4.49239 9.03987 4.125 8.68445 4.125 8.23808C4.125 7.7917 4.49119 7.42432 4.93876 7.42432H17.6573Z" fill="black"/>
<path fill-rule="evenodd" clip-rule="evenodd" d="M45.7752 7.67685L49.7279 9.95657C50.1743 10.2198 50.3239 10.7811 50.0714 11.2287L31.7965 42.8636L26.251 46.0719V39.6552L44.5139 8.0203C44.7664 7.57393 45.3384 7.42434 45.774 7.67685H45.7752Z" fill="#FFF200"/>
<path d="M46.1759 6.97673L50.1286 9.26842L50.1968 9.30313C50.575 9.54247 50.8275 9.90986 50.9412 10.3108C51.056 10.7344 50.9986 11.2047 50.7688 11.6283L32.4927 43.2632C32.4245 43.3889 32.3216 43.4918 32.1948 43.5612L26.6492 46.7684C26.2603 46.9862 25.7673 46.8593 25.5495 46.4704C25.4693 46.3436 25.4346 46.2071 25.4346 46.0695V39.6528C25.4346 39.4816 25.48 39.3321 25.5722 39.2064L43.8148 7.60859C44.0553 7.19573 44.4335 6.92049 44.8691 6.8068C45.2927 6.69192 45.763 6.73739 46.1759 6.97793V6.97673ZM49.3268 10.6554L45.3741 8.37568C45.3513 8.36372 45.3166 8.36372 45.2819 8.36372C45.2472 8.37568 45.2245 8.39842 45.2137 8.42116L27.0525 39.873V44.6742L31.2111 42.2795L49.3723 10.8277C49.3842 10.793 49.3842 10.7595 49.3842 10.7356C49.3723 10.7009 49.3615 10.6781 49.3388 10.6674L49.3268 10.6554Z" fill="black"/>
<path d="M40.9969 14.1164C40.6068 13.8878 40.4704 13.3948 40.6989 13.0166C40.9167 12.6265 41.4205 12.4889 41.7987 12.7186L47.3562 15.9258C47.7463 16.1436 47.872 16.6366 47.6542 17.0268C47.4244 17.4157 46.9326 17.5425 46.5424 17.3247L40.9969 14.1164Z" fill="black"/>
<path d="M25.838 40.3553C25.4598 40.1375 25.3222 39.6325 25.5519 39.2556C25.7697 38.8654 26.2628 38.7398 26.6517 38.9576L32.2092 42.1659C32.5874 42.3945 32.725 42.8876 32.4952 43.2657C32.2774 43.6558 31.7844 43.7815 31.3955 43.5637L25.838 40.3553Z" fill="black"/>
</g>
<defs>
<clipPath id="clip0_2001_275">
<rect width="51" height="51" fill="white"/>
</clipPath>
</defs>
</svg>
