<svg width="32" height="32" viewBox="0 0 32 32" fill="none" xmlns="http://www.w3.org/2000/svg">
<rect width="32" height="32" fill="#1867C7"/>
<path d="M21.2785 19.4262L25.7369 20.9123C25.8938 20.9646 26 21.1115 26 21.2769V22.9231C26 24.6223 24.6223 26 22.9231 26C13.5746 26 5.99692 18.42 6 9.07154C6.00077 7.37538 7.37615 6 9.07231 6H10.7231C10.8885 6 11.0354 6.10615 11.0877 6.26308L12.5738 10.7215C12.6285 10.8862 12.5669 11.0669 12.4223 11.1631L10.4246 12.4946C10.2738 12.5954 10.2092 12.7877 10.2738 12.9569C11.7492 16.79 15.21 20.2508 19.0431 21.7262C19.2123 21.7915 19.4046 21.7262 19.5054 21.5754L20.8369 19.5777C20.9331 19.4331 21.1138 19.3715 21.2785 19.4262Z" fill="white"/>
</svg>
